<svg xmlns="http://www.w3.org/2000/svg" width="222.6" height="96" viewBox="0 0 222.6 96"><g fill="#fff"><path d="M12.5 96c-3 0-4.6-1.9-4.6-5.3v-7.1h1.8v7c0 2.3 1 3.5 2.8 3.5 1.9 0 2.8-1.2 2.8-3.4v-7.1h1.8v7.1c.1 3.4-1.6 5.3-4.6 5.3M40 95.8l-4.9-7.6c-.3-.5-.7-1.2-.9-1.5v9.1h-1.8V83.6h1.9l4.6 7.4c.3.5.8 1.4 1 1.7v-9.2h1.8v12.2H40"/><path d="M57.1 83.6h1.8v12.2h-1.8zM79.8 95.8h-1.9l-4.2-12.2h2l2.5 7.8c.2.7.6 1.8.7 2.2.1-.4.5-1.5.7-2.2l2.5-7.8h2l-4.3 12.2M98.6 95.8V83.6h7.9v1.8h-6.1v3h3.5v1.8h-3.5V94h6.3v1.8h-8.1"/><path d="M128.1 90.8l2.5 5h-2.1L126 91h-2.8v4.8h-1.8V83.6h5.3c2.1 0 3.9 1.1 3.9 3.6.2 2-.9 3.2-2.5 3.6m-1.2-5.5h-3.6v3.9h3.6c1.2 0 2.1-.6 2.1-2-.1-1.2-.9-1.9-2.1-1.9zM149.4 96c-1.8 0-3.3-.8-4.3-2l1.3-1.3c.8.9 2 1.4 3.2 1.4 1.7 0 2.5-.6 2.5-1.8 0-.9-.7-1.4-2.8-2-2.6-.8-3.8-1.4-3.8-3.6 0-2.1 1.8-3.4 4-3.4 1.7 0 2.9.6 4 1.7l-1.3 1.3c-.8-.8-1.6-1.2-2.8-1.2-1.4 0-2 .7-2 1.5 0 .9.6 1.3 2.7 1.9 2.4.7 3.9 1.5 3.9 3.7 0 2.3-1.4 3.8-4.6 3.8"/><path d="M169 83.6h1.8v12.2H169zM190.9 85.4v10.4H189V85.4h-3.5v-1.8h8.9v1.8h-3.5M214.3 91v4.8h-1.8V91l-4.4-7.4h2.1l1.9 3.4c.4.7 1 2 1.3 2.4.2-.5.8-1.6 1.3-2.4l1.9-3.4h2.1l-4.4 7.4"/><path d="M13.9 74.6c-1.6 0-3.4.1-5.3.2s-3.5.2-4.8.2c-.3 0-.7 0-1.2-.1s-.8-.4-.8-1c0-.4.3-.9.8-1.3s1.6-.8 3.4-1.1c.6-.1 1.2-.2 1.8-.4.6-.2 1.1-.5 1.6-1s.9-1.2 1.2-2.1c.3-.9.4-2.2.4-3.8V11.5c0-.5-.3-.9-.8-1.2-.5-.3-1.2-.4-2-.6-.8 0-1.6-.1-2.4-.1-.9 0-1.7-.1-2.4-.2C2.1 9.3 1.2 9.1.7 9 .2 8.9 0 8.6 0 8c0-.4.2-.8.5-1.1.3-.3.7-.4 1.2-.6.4-.1.9-.2 1.4-.2.5 0 .9-.1 1.3-.1h10.2c2.8 0 5.6-.1 8.4-.3 2.8-.2 6-.3 9.6-.3 5.9 0 11.4.7 16.6 2.2 5.2 1.5 9.7 3.8 13.5 6.9 3.9 3.1 6.9 7.2 9.1 12 2.2 4.9 3.4 10.7 3.4 17.4 0 4.2-.9 8.1-2.8 11.9-1.8 3.7-4.3 7-7.5 9.7-3.1 2.8-6.8 4.9-11 6.6-4.2 1.6-8.7 2.4-13.5 2.4H13.9m6.7-13.9c0 1.9.4 3.6 1.2 5 .8 1.4 1.9 2.6 3.3 3.5s2.9 1.6 4.6 2.1c1.7.4 3.5.7 5.3.7 1.5 0 3.3-.2 5.3-.7 2-.4 4.1-1.1 6.3-2.1 2.2-.9 4.3-2.2 6.5-3.8 2.2-1.6 4.1-3.5 5.8-5.7 1.7-2.2 3.1-4.8 4.2-7.7 1-2.9 1.6-6.3 1.6-10.1s-.5-7.3-1.6-10.4c-1-3.1-2.5-5.9-4.3-8.4-1.8-2.5-3.9-4.6-6.2-6.4-2.4-1.8-4.8-3.3-7.4-4.5-2.5-1.2-5.1-2.1-7.8-2.6-2.6-.5-5-.7-7.4-.7-2.3 0-4.1.1-5.4.3-1.3.2-2.2.5-2.8.8-.6.3-1 .7-1.1 1.2-.1.4-.2.9-.2 1.2v48.3zM97.9 76.7c-2.6 0-4.8-.4-6.6-1.1-1.8-.7-3.1-1.8-4.1-3.2-1-1.4-1.7-3.1-2.1-5-.4-1.9-.6-4.1-.6-6.5 0-1.7 0-3.6.1-5.7 0-2.1.1-4.2.1-6.3 0-2.2 0-4.3.1-6.3 0-2.1.1-3.9.1-5.5 0-.8-.4-1.3-1.1-1.6-.7-.2-1.5-.4-2.1-.6-1.3-.4-2.2-.7-2.7-.8-.4-.2-.7-.5-.7-.8 0-.5.3-.8.8-.9.5-.1 1.2-.1 2-.1s1.6 0 2.4.1c.8.1 1.6.1 2.4.1.8 0 1.7 0 2.5-.1s1.7-.1 2.5-.1 1.2.2 1.4.4c.2.3.3.9.3 1.7 0 5 0 10-.1 15s-.1 10-.1 15c0 2.3.8 4.1 2.3 5.3 1.6 1.2 3.7 1.8 6.5 1.8 3.1 0 5.6-.3 7.3-.9 1.8-.6 3.1-1.4 4-2.3.9-.9 1.5-2 1.7-3.2.3-1.2.4-2.4.4-3.5 0-4 0-8 .1-12s.1-8 .1-12c0-.3-.1-.6-.2-.8-.1-.2-.4-.4-.8-.6-.4-.1-1-.3-1.7-.5s-1.8-.5-3.1-.8c-.4-.1-1.1-.4-2-.7-.9-.3-1.3-.7-1.3-1.1 0-.4.3-.6.8-.7.5-.1 1.1-.2 1.7-.2 1 0 1.9 0 2.9.1.9.1 1.9.1 2.9.1 1.1 0 2.2 0 3.3-.1 1.1-.1 2.2-.1 3.3-.1.4 0 .9.1 1.5.4.6.3.9.9.9 2 0 5.7-.1 11.3-.2 17-.1 5.6-.2 11.3-.2 17 0 1.2.4 1.9 1.1 2.2.7.3 1.3.4 1.8.4 2.2 0 3.7 0 4.5.1.9.1 1.3.4 1.3 1 0 .4-.2.7-.5.9-.3.1-.9.3-1.7.4-4 .6-7.1 1.1-9.3 1.5-2.3.4-3.7.7-4.2.7-.4 0-.7-.2-.8-.5-.1-.3-.1-.8-.1-1.3v-2.6c0-.9-.3-1.3-.8-1.3-.4 0-1.1.3-1.9 1-.8.7-1.9 1.4-3.2 2.3-1.3.9-2.8 1.6-4.6 2.3-2 .6-4 1-6.3 1M140.3 10.9c0-1.5-.3-2.6-.8-3.2-.6-.6-1.2-1.1-1.9-1.3-.7-.3-1.3-.5-1.9-.6-.6-.1-.8-.5-.8-1 0-.4.2-.7.6-.8.4-.2 1-.4 1.8-.7l7.6-2.9c.3-.1.6-.2.9-.2h1c.3 0 .6.1.8.4.3.3.4.8.4 1.6v46.1c0 1.2.3 1.8 1 1.8.2 0 .7-.2 1.7-.7 1-.5 2.2-1.1 3.5-1.9 1.3-.8 2.8-1.7 4.3-2.6 1.5-1 2.9-1.9 4.2-2.8 1.3-.9 2.3-1.7 3.2-2.4.9-.7 1.3-1.3 1.3-1.6 0-.7-.2-1.3-.7-1.7-.5-.4-.9-.7-1.5-1-.5-.3-1-.5-1.5-.8-.4-.3-.7-.6-.7-1.1 0-.3.2-.6.5-.8.3-.2.7-.3 1.1-.3 1.2 0 2.6 0 4.1.1 1.5.1 3 .1 4.5.1 1.4 0 2.9 0 4.4-.1 1.5-.1 2.9-.1 4-.1.5 0 1 .1 1.5.2.4.1.7.5.7 1.1 0 .3-.2.6-.6.8-.4.3-.9.5-1.5.7l-1.8.6c-.6.2-1.1.4-1.5.5-.8.4-2.4 1.2-4.8 2.5s-4.8 2.7-7.3 4.2-4.7 2.9-6.7 4.2c-1.9 1.3-2.9 2.1-2.9 2.4 0 .4.1.7.3 1 .2.3.4.5.6.6l19.4 17.6c1.1 1 2.2 1.8 3.3 2.4 1.1.5 2 1 2.9 1.3.8.3 1.5.6 2 .8.5.2.7.5.7.9 0 .7-1 1.1-2.9 1.1-1.2 0-2.5-.1-3.9-.2s-3-.2-4.7-.2c-1.5 0-2.9.1-4.3.2-1.3.1-2.7.2-4 .2-1.2 0-2.1-.1-2.6-.2s-.8-.4-.8-.9.3-.9.9-1.1c.6-.2 1.4-.4 2.4-.5.6-.1 1.1-.3 1.5-.6.4-.3.6-.6.6-1s-.4-1-1.2-1.8l-16.9-16c-.5-.4-.8-.7-1-.7-.5 0-.8.2-.8.6V69c0 1.3.3 2.1.8 2.6.6.5 1.1.8 1.6.9.9.3 1.7.5 2.3.6.6.1 1 .4 1 1 0 .4-.3.7-.8.9-.6.1-1.1.2-1.7.2-1.3 0-2.6-.1-3.8-.2-1.2-.1-2.4-.2-3.7-.2-1.4 0-2.8.1-4.3.2s-2.8.2-3.8.2c-.4 0-.9-.1-1.6-.2-.7-.1-1.1-.4-1.1-1 0-.5.2-.9.6-1.1.4-.2.9-.4 1.5-.5.7-.2 1.5-.4 2.1-.6.7-.2 1.3-.4 1.8-.7.5-.3.9-.8 1.2-1.3.3-.6.4-1.5.4-2.7V10.9"/><path d="M193.1 48.6c-.1.4-.2.9-.2 1.6v2.4c0 2.4.2 4.7.6 7 .4 2.2 1.2 4.2 2.3 6 1.2 1.7 2.8 3.1 4.9 4.2 2.1 1.1 4.9 1.6 8.3 1.6 2.2 0 3.8-.2 5-.7 1.2-.4 2.1-1 2.8-1.5.7-.6 1.2-1.1 1.6-1.6.4-.5.8-.7 1.2-.7.7 0 1 .3 1 .9 0 .2-.3.8-.9 1.7-.6.9-1.6 1.9-2.9 3-1.3 1.1-3 2.1-5.1 2.9-2.1.9-4.5 1.3-7.4 1.3-6.2 0-11-2-14.4-6.1-3.4-4.1-5.1-9.6-5.1-16.7 0-2.6.4-5.3 1.2-8.1s2.1-5.3 3.7-7.6c1.7-2.3 3.8-4.2 6.3-5.7s5.6-2.2 9.1-2.2c3.2 0 5.9.6 8.1 1.8 2.2 1.2 4 2.6 5.3 4.3 1.3 1.7 2.3 3.4 2.9 5.2.6 1.8.9 3.3.9 4.5 0 1-.1 1.7-.4 2.1-.3.3-.9.5-1.8.5h-27m10.7-3.4c2.5 0 4.4-.1 5.9-.3 1.5-.2 2.7-.5 3.5-1 .8-.4 1.4-1 1.6-1.7.3-.7.4-1.5.4-2.6 0-1.9-.8-3.6-2.4-4.9-1.6-1.3-3.5-2-5.9-2-2 0-3.8.4-5.4 1.3-1.6.9-2.9 1.9-4 3.1-1.1 1.2-1.9 2.4-2.5 3.7-.6 1.3-.9 2.4-.9 3.2 0 .2.1.4.2.5.1.1.5.2 1.1.3.6.1 1.6.1 2.9.2 1.3.1 3.1.2 5.5.2z"/></g></svg>